<?xml version="1.0" encoding="UTF-8" standalone="no"?>
<svg
   xmlns:dc="http://purl.org/dc/elements/1.1/"
   xmlns:cc="http://creativecommons.org/ns#"
   xmlns:rdf="http://www.w3.org/1999/02/22-rdf-syntax-ns#"
   xmlns:svg="http://www.w3.org/2000/svg"
   xmlns="http://www.w3.org/2000/svg"
   xmlns:sodipodi="http://sodipodi.sourceforge.net/DTD/sodipodi-0.dtd"
   xmlns:inkscape="http://www.inkscape.org/namespaces/inkscape"
   width="120"
   height="120"
   viewBox="0 0 120 120"
   id="svg4184"
   version="1.1"
   inkscape:version="0.91 r"
   sodipodi:docname="icon.svg">
  <metadata
     id="metadata4192">
    <rdf:RDF>
      <cc:Work
         rdf:about="">
        <dc:format>image/svg+xml</dc:format>
        <dc:type
           rdf:resource="http://purl.org/dc/dcmitype/StillImage" />
        <dc:title />
      </cc:Work>
    </rdf:RDF>
  </metadata>
  <defs
     id="defs4190" />
  <sodipodi:namedview
     pagecolor="#ffffff"
     bordercolor="#666666"
     borderopacity="1"
     objecttolerance="10"
     gridtolerance="10"
     guidetolerance="10"
     inkscape:pageopacity="0"
     inkscape:pageshadow="2"
     inkscape:window-width="1920"
     inkscape:window-height="1056"
     id="namedview4188"
     showgrid="false"
     inkscape:zoom="2.2836539"
     inkscape:cx="-174.12634"
     inkscape:cy="22.79776"
     inkscape:window-x="0"
     inkscape:window-y="24"
     inkscape:window-maximized="1"
     inkscape:current-layer="svg4184" />
  <g
     id="g4134"
     transform="matrix(0.64875951,0,0,0.64875951,22.156022,20.792471)">
    <path
       style="fill:#008000"
       id="path4186-0"
       d="m 73.438871,1.0208033 c -23.331983,0 -42.242573,14.7098037 -42.242573,32.8553377 0,10.818793 6.788147,20.417245 17.161044,26.40161 0.694655,3.337163 -10.31892,18.398989 -12.027398,20.534586 16.676428,-1.365844 34.025219,-11.283462 37.108927,-14.080859 23.331984,0 42.242579,-14.709804 42.242579,-32.855337 0,-18.145534 -18.910595,-32.8553377 -42.242579,-32.8553377 z M 49.237395,19.648606 c 1.220341,0 2.33625,0.177184 3.373539,0.440027 1.027903,0.27223 1.889182,0.723986 2.640161,1.32008 0.75098,0.59609 1.337682,1.417469 1.760108,2.34681 0.417732,0.929332 0.586702,1.93142 0.586702,3.226864 l 0,0.880053 -5.280322,0 c 0,-1.300132 -0.131421,-2.385532 -0.586702,-3.080187 -0.455281,-0.69935 -1.276665,-1.02673 -2.34681,-1.02673 -0.614864,0 -1.058411,0.114994 -1.466756,0.293351 -0.408345,0.178358 -0.782661,0.442374 -1.026729,0.733379 -0.244069,0.291004 -0.346155,0.646546 -0.440027,1.026729 -0.08918,0.375489 -0.146676,0.76506 -0.146676,1.173405 0,0.840158 0.08801,1.480837 0.440027,2.053458 0.356715,0.572622 1.173405,1.125296 2.34681,1.613432 l 4.253593,1.760107 c 1.041983,0.459975 1.831685,0.969233 2.493485,1.466757 0.6618,0.49283 1.219168,1.036116 1.613432,1.613431 0.394264,0.567928 0.729858,1.221515 0.880053,1.906783 0.15489,0.689962 0.146676,1.501959 0.146676,2.34681 0.0047,2.867802 -0.82725,4.850856 -2.493485,6.160376 -1.666235,1.314213 -3.913306,2.053458 -6.893754,2.053458 -3.107176,0 -5.409397,-0.706389 -6.747078,-2.053458 -1.332986,-1.347069 -1.906781,-3.351245 -1.906781,-5.867025 l 0,-1.026729 5.426995,0 0,0.733378 c 0,0.638332 0.04318,1.239116 0.146676,1.760107 0.09857,0.520992 0.305085,0.958672 0.586702,1.320081 0.281617,0.352021 0.704043,0.673534 1.173405,0.880054 0.469362,0.206519 1.051371,0.293351 1.760108,0.293351 0.840157,0 1.524253,-0.3309 2.200134,-0.880054 0.671187,-0.539766 1.026729,-1.348242 1.026729,-2.493485 0,-0.610171 0.01784,-1.162845 -0.146676,-1.613432 -0.164276,-0.4412 -0.49987,-0.81669 -0.880053,-1.173405 -0.384877,-0.352021 -0.847199,-0.593743 -1.466756,-0.880054 -0.624252,-0.295698 -1.431554,-0.71695 -2.34681,-1.026729 -1.220341,-0.403651 -2.33977,-0.836638 -3.226864,-1.32008 -0.891787,-0.47875 -1.59935,-0.970406 -2.200133,-1.613432 -0.600783,-0.652413 -1.038461,-1.492571 -1.320079,-2.34681 -0.281617,-0.849545 -0.440026,-1.811737 -0.440026,-2.933512 0,-2.698831 0.849543,-4.6901 2.346808,-6.0137 1.506651,-1.323606 3.536641,-2.053459 6.160374,-2.053459 z m 47.962926,0 c 1.220341,0 2.487618,0.177184 3.520219,0.440027 1.0279,0.27223 1.88918,0.723986 2.64016,1.32008 0.75098,0.59609 1.34237,1.417469 1.7601,2.34681 0.41774,0.929332 0.58671,1.93142 0.58671,3.226864 l 0,0.880053 -5.28033,0 c 0,-1.300132 -0.27809,-2.385532 -0.733374,-3.080187 -0.455281,-0.69935 -1.129989,-1.02673 -2.200134,-1.02673 -0.614864,0 -1.205087,0.114994 -1.613432,0.293351 -0.408345,0.178358 -0.635985,0.442374 -0.880053,0.733379 -0.244069,0.291004 -0.49283,0.646546 -0.586703,1.026729 -0.08918,0.375489 -0.146675,0.76506 -0.146675,1.173405 0,0.840158 0.23468,1.480837 0.586702,2.053458 0.356715,0.572622 1.173405,1.125296 2.34681,1.613432 l 4.253589,1.760107 c 1.04199,0.459975 1.83169,0.969233 2.49349,1.466757 0.6618,0.49283 1.21447,1.036116 1.61343,1.613431 0.39426,0.567928 0.58318,1.221515 0.73338,1.906783 0.15489,0.689962 0.29335,1.501959 0.29335,2.34681 0,2.872495 -0.82725,4.850856 -2.49349,6.160376 -1.66623,1.314213 -4.06467,2.053458 -7.040425,2.053458 -3.107176,0 -5.262721,-0.706389 -6.600402,-2.053458 -1.332988,-1.347069 -2.053459,-3.351245 -2.053459,-5.867025 l 0,-1.026729 5.573673,0 0,0.733378 c 0,0.638332 0.04365,1.239116 0.146676,1.760107 0.09857,0.520992 0.305085,0.958672 0.586702,1.320081 0.281618,0.352021 0.557368,0.673534 1.02673,0.880054 0.469362,0.206519 1.198046,0.293351 1.906783,0.293351 0.840158,0 1.524253,-0.3309 2.200134,-0.880054 0.671188,-0.54446 1.026728,-1.348242 1.026728,-2.493485 0,-0.610171 -0.12907,-1.162845 -0.29335,-1.613432 -0.16428,-0.4412 -0.3485,-0.81669 -0.733378,-1.173405 -0.384877,-0.352021 -0.993874,-0.740418 -1.613432,-1.026729 -0.624251,-0.295698 -1.284878,-0.570275 -2.200134,-0.880054 -1.220341,-0.403651 -2.33977,-0.836638 -3.226864,-1.32008 -0.891787,-0.47875 -1.599351,-0.970406 -2.200134,-1.613432 -0.600783,-0.652413 -1.038463,-1.492571 -1.32008,-2.34681 -0.281618,-0.849545 -0.440027,-1.811737 -0.440027,-2.933512 0,-2.698831 0.702869,-4.6901 2.200134,-6.0137 1.506652,-1.323606 3.536642,-2.053459 6.160376,-2.053459 z m -35.78885,0.586703 8.067159,0 3.960241,19.214505 0.146676,0 3.813566,-19.214505 8.213834,0 0,27.281664 -5.133646,0 0,-21.707991 -4.840295,21.707991 -4.253593,0 -4.840295,-21.707991 -0.146676,0 0,21.707991 -4.986971,0 0,-27.281664 z"
       inkscape:connector-curvature="0" />
    <path
       id="path4186-3"
       d="m 15.06507,7.201554 c -7.777328,0 -14.08085922,6.308225 -14.08085922,14.080859 l 0,84.485147 c 0,7.77264 6.30353122,14.08086 14.08085922,14.08086 l 42.242577,0 c 7.777323,0 14.080854,-6.30822 14.080854,-14.08086 l 0,-28.455068 c -2.802091,1.422167 -5.960897,2.925299 -9.387239,4.253593 l 0,12.467427 c 0,1.295439 -1.051371,2.34681 -2.346805,2.34681 l -46.936197,0 c -1.295439,0 -2.34681,-1.051371 -2.34681,-2.34681 l 0,-70.404289 c 0,-1.295439 1.051371,-2.34681 2.34681,-2.34681 l 13.054129,0 c 1.422167,-5.101965 4.021259,-9.865989 7.480457,-14.080859 l -18.187776,0 z m 21.121288,94.899116 c 3.313695,0 6.0137,2.70001 6.0137,6.0137 0,3.3137 -2.700005,6.0137 -6.0137,6.0137 -3.313695,0 -6.0137,-2.7 -6.0137,-6.0137 0,-3.31369 2.700005,-6.0137 6.0137,-6.0137 z"
       inkscape:connector-curvature="0" />
  </g>
</svg>
